<svg xmlns="http://www.w3.org/2000/svg" viewBox="-50.9 -11.5 14.9 16"><path fill="#FFF" d="M-37.2 2.2h-4c0 1.3-1 2.3-2.3 2.3s-2.3-1-2.3-2.3h-4c-.6 0-1.1-.5-1.1-1.1C-49.6 0-48-2-48-6.3c0-1.7 1.4-3.6 3.8-3.9 0-.1-.1-.2-.1-.3 0-.5.4-.9.9-.9s.9.4.9.9c0 .1 0 .2-.1.3 2.4.3 3.8 2.2 3.8 3.9 0 4.3 1.5 6.3 2.9 7.4-.2.6-.7 1.1-1.3 1.1zm-.5-1.1c-1.6-1.8-2.4-4.2-2.4-7.4 0-1.2-1.1-2.9-3.4-2.9s-3.4 1.7-3.4 2.9c0 3.2-.8 5.6-2.4 7.4h11.6zm-5.8 2.4c-.7 0-1.3-.6-1.3-1.3 0-.1-.1-.1-.1-.1-.1 0-.1.1-.1.1 0 .9.7 1.6 1.6 1.6.1 0 .1-.1.1-.1-.1-.1-.1-.2-.2-.2z"/></svg>