<svg width="20" style="fill:#188fff;stroke:#188fff;stroke-width:0;vertical-align:bottom;" height="20" viewBox="0 0 32 32" data-icon="DetectLocation"><path d="M15.95-.102c-.636 0-1.147.514-1.147 1.147v2.273C8.716 3.866 3.865 8.725 3.346 14.803h-2.3c-.636 0-1.15.513-1.15 1.146 0 .635.514 1.148 1.15 1.148h2.308c.58 6.014 5.408 10.803 11.45 11.347v2.41c0 .634.51 1.145 1.145 1.145.634 0 1.148-.512 1.148-1.146v-2.41c6.04-.543 10.867-5.332 11.447-11.346h2.31c.63 0 1.145-.515 1.145-1.15 0-.633-.516-1.145-1.146-1.145h-2.3c-.52-6.078-5.37-10.936-11.456-11.485V1.045c0-.633-.516-1.147-1.15-1.147zM14.802 5.62v2.31c0 .634.512 1.146 1.146 1.146.634 0 1.148-.512 1.148-1.146V5.62c4.82.533 8.653 4.37 9.156 9.183H23.97c-.636 0-1.15.513-1.15 1.146 0 .635.516 1.148 1.15 1.148h2.262c-.563 4.745-4.36 8.514-9.134 9.04v-2.17c0-.632-.516-1.146-1.15-1.146-.634 0-1.145.514-1.145 1.147v2.17c-4.775-.528-8.576-4.296-9.14-9.042H7.93c.632 0 1.146-.515 1.146-1.15 0-.633-.514-1.145-1.146-1.145H5.643c.503-4.813 4.338-8.65 9.16-9.182z"></path></svg>